<?xml version="1.0" encoding="UTF-8" standalone="no"?>
<svg
   version="1.1"
   id="Layer_1"
   x="0px"
   y="0px"
   viewBox="0 0 2669.9053 1668.6908"
   enable-background="new 0 0 2669.9053 1668.6908"
   xml:space="preserve"
   sodipodi:docname="Hello-My-Name-Is-Ingo-Kuba.svg"
   inkscape:version="1.1.2 (0a00cf5339, 2022-02-04)"
   xmlns:inkscape="http://www.inkscape.org/namespaces/inkscape"
   xmlns:sodipodi="http://sodipodi.sourceforge.net/DTD/sodipodi-0.dtd"
   xmlns="http://www.w3.org/2000/svg"
   xmlns:svg="http://www.w3.org/2000/svg"><defs
   id="defs21" /><sodipodi:namedview
   id="namedview19"
   pagecolor="#ffffff"
   bordercolor="#666666"
   borderopacity="1.0"
   inkscape:pageshadow="2"
   inkscape:pageopacity="0.0"
   inkscape:pagecheckerboard="0"
   showgrid="false"
   inkscape:zoom="0.26357407"
   inkscape:cx="1868.545"
   inkscape:cy="764.49099"
   inkscape:window-width="3766"
   inkscape:window-height="2096"
   inkscape:window-x="1994"
   inkscape:window-y="27"
   inkscape:window-maximized="1"
   inkscape:current-layer="Layer_1" />
<g
   id="g16">
	<g
   id="g8">
		<path
   fill="#FF0000"
   d="M2614.9526,274.1353c0-132.4324-107.3574-239.79-239.79-239.79H294.7426    c-132.4324,0-239.7901,107.3576-239.7901,239.79v327.2101h2559.71v804.9664c0.1885-3.8958,0.29-7.8141,0.29-11.7565V274.1353z"
   id="path2" />
		<path
   fill="#FF0000"
   d="M294.7426,1634.3453h2080.4199c88.584,0,165.9395-48.0404,207.4595-119.4835H87.2832    C128.8032,1586.3049,206.1589,1634.3453,294.7426,1634.3453z"
   id="path4" />
		<path
   fill="#FFFFFF"
   d="M54.9526,601.3454v793.2099c0,43.8486,11.7786,84.9424,32.3306,120.3065h2495.3389    c18.7041-32.1846,30.1367-69.1156,32.0405-108.55V601.3454H54.9526z"
   id="path6" />
	</g>
	<text
   transform="matrix(1 0 0 1 775.6766 333.2833)"
   id="text14"><tspan
     x="0"
     y="0"
     fill="#FFFFFF"
     font-family="'Arial-BoldMT'"
     font-size="330"
     id="tspan10">HELLO</tspan><tspan
     x="118.9355"
     y="192"
     fill="#FFFFFF"
     font-family="'Arial-BoldMT'"
     font-size="160"
     id="tspan12">My Name Is</tspan></text>
</g>
<text
   xml:space="preserve"
   style="font-style:normal;font-weight:normal;font-size:415.748px;line-height:1.25;font-family:sans-serif;letter-spacing:0px;word-spacing:0px;fill:#000000;fill-opacity:1;stroke:none"
   x="135.41875"
   y="1178.4584"
   id="text2159"><tspan
     sodipodi:role="line"
     id="tspan2157"
     x="135.41875"
     y="1178.4584"
     style="font-style:normal;font-variant:normal;font-weight:normal;font-stretch:normal;font-size:415.748px;font-family:Purisa;-inkscape-font-specification:Purisa">Ingo Kuba</tspan></text></svg>
